<svg width="302" height="302" viewBox="0 0 302 302" fill="none" xmlns="http://www.w3.org/2000/svg">
<path d="M46.5 244.75V39H255.5V244.75V245.25H256H286H286.5V244.75V24.4375C286.5 11.3455 277.965 0.5 267.25 0.5H34.75C24.0349 0.5 15.5 11.3455 15.5 24.4375V244.75V245.25H16H46H46.5V244.75ZM135.5 263H8.5C3.98176 263 0.5 267.529 0.5 272.875V291.625C0.5 296.971 3.98176 301.5 8.5 301.5H293.5C298.018 301.5 301.5 296.971 301.5 291.625V272.875C301.5 267.529 298.018 263 293.5 263H226.5V226V225.5H226H136H135.5V226V263Z" fill="#FF7A00" stroke="black"/>
</svg>
