<svg width="302" height="302" viewBox="0 0 302 302" fill="none" xmlns="http://www.w3.org/2000/svg">
<path d="M222.841 113H222.14L222.368 113.662C228.268 130.859 225.668 151.541 214.481 165.524L150.61 245.363L150.5 245.5V245.676V272.875C150.5 288.574 160.699 301.5 173.5 301.5H278.5C291.301 301.5 301.5 288.574 301.5 272.875V141.625C301.5 125.926 291.301 113 278.5 113H222.841ZM204.654 152.894L204.655 152.894C213.782 141.479 213.782 123.015 204.654 111.606L122.656 9.10757C118.081 3.38813 112.056 0.5 106.002 0.5C99.9489 0.5 93.9242 3.38813 89.3486 9.10757L7.34551 111.606C-1.78183 123.015 -1.78183 141.479 7.3455 152.889L89.3439 255.392C93.9195 261.112 99.9442 264 105.998 264C112.051 264 118.076 261.112 122.651 255.392L204.654 152.894ZM226 220.812C220.164 220.812 215.25 214.847 215.25 207.25C215.25 199.647 220.163 193.688 226 193.688C231.837 193.688 236.75 199.647 236.75 207.25C236.75 214.847 231.836 220.812 226 220.812ZM46 145.812C40.1636 145.812 35.25 139.847 35.25 132.25C35.25 124.647 40.1634 118.688 46 118.688C51.8366 118.688 56.75 124.647 56.75 132.25C56.75 139.847 51.8364 145.812 46 145.812ZM106 220.812C100.164 220.812 95.25 214.847 95.25 207.25C95.25 199.647 100.163 193.688 106 193.688C111.837 193.688 116.75 199.647 116.75 207.25C116.75 214.847 111.836 220.812 106 220.812ZM106 145.812C100.164 145.812 95.25 139.847 95.25 132.25C95.25 124.647 100.163 118.688 106 118.688C111.837 118.688 116.75 124.647 116.75 132.25C116.75 139.847 111.836 145.812 106 145.812ZM106 70.8125C100.164 70.8125 95.25 64.8474 95.25 57.25C95.25 49.6469 100.163 43.6875 106 43.6875C111.837 43.6875 116.75 49.6469 116.75 57.25C116.75 64.8474 111.836 70.8125 106 70.8125ZM166 145.812C160.164 145.812 155.25 139.847 155.25 132.25C155.25 124.647 160.163 118.688 166 118.688C171.837 118.688 176.75 124.647 176.75 132.25C176.75 139.847 171.836 145.812 166 145.812Z" fill="#FF7A00" stroke="black"/>
</svg>
