<svg width="50" height="50" viewBox="0 0 50 50" fill="none" xmlns="http://www.w3.org/2000/svg">
<path fill-rule="evenodd" clip-rule="evenodd" d="M0 25C0 38.8068 11.1932 50 25 50C38.8068 50 50 38.8068 50 25C50 11.1932 38.8068 0 25 0C11.1932 0 0 11.1932 0 25ZM19.9841 32.4841C19.5701 32.9127 19.341 33.4868 19.3462 34.0827C19.3514 34.6786 19.5904 35.2487 20.0118 35.67C20.4332 36.0914 21.0032 36.3304 21.5991 36.3356C22.195 36.3408 22.7691 36.1117 23.1977 35.6977L32.2886 26.6068C32.7147 26.1806 32.9541 25.6026 32.9541 25C32.9541 24.3974 32.7147 23.8194 32.2886 23.3932L23.1977 14.3023C22.7691 13.8883 22.195 13.6592 21.5991 13.6644C21.0032 13.6696 20.4332 13.9086 20.0118 14.33C19.5904 14.7513 19.3514 15.3214 19.3462 15.9173C19.341 16.5132 19.5701 17.0873 19.9841 17.5159L27.4682 25L19.9841 32.4841Z" fill="url(#paint0_linear_2_312)"/>
<defs>
<linearGradient id="paint0_linear_2_312" x1="0" y1="25" x2="50" y2="25" gradientUnits="userSpaceOnUse">
<stop stop-color="#FF7A00"/>
<stop offset="0.0001" stop-color="#F67209"/>
<stop offset="0.813535" stop-color="#A12161"/>
</linearGradient>
</defs>
</svg>
