<svg width="142" height="113" viewBox="0 0 63 42" fill="none" xmlns="http://www.w3.org/2000/svg">
<g clip-path="url(#clip0_736_2196)">
<path d="M46.5612 36.4531V36.7347L46.802 36.8807C47.3899 37.2372 47.7857 37.8501 47.7857 38.5703C47.7857 39.6048 46.9124 40.5 45.8367 40.5H21.3469C17.5751 40.5 14.5 37.3758 14.5 33.5V8.5C14.5 4.62419 17.5751 1.5 21.3469 1.5H44.6122C46.3546 1.5 47.7857 2.94535 47.7857 4.75V27.25C47.7857 28.2091 47.3771 29.0711 46.7069 29.7441L46.5612 29.8904V30.0969V36.4531ZM43.3878 36.5H43.8878V36V31V30.5H43.3878H21.3469C19.7088 30.5 18.398 31.8532 18.398 33.5C18.398 35.1468 19.7088 36.5 21.3469 36.5H43.3878ZM39.6454 10.5H24.9515C24.0429 10.5 23.2959 11.3151 23.2959 12.25C23.2959 13.1849 24.0429 14 24.9515 14H39.7143C40.6736 14 41.4388 13.2039 41.4388 12.25C41.4388 11.2782 40.6556 10.5 39.6454 10.5ZM39.6454 15.5H24.9515C24.0429 15.5 23.2959 16.3151 23.2959 17.25C23.2959 18.1849 24.0429 19 24.9515 19H39.7143C40.6736 19 41.4388 18.2039 41.4388 17.25C41.4388 16.2782 40.6556 15.5 39.6454 15.5Z" fill="#FDD301" stroke="black"/>
</g>
<defs>
<clipPath id="clip0_736_2196">
<rect width="34.2857" height="40" fill="white" transform="translate(14 1)"/>
</clipPath>
</defs>
</svg>
