<svg width="142" height="113" viewBox="0 0 142 113" fill="none" xmlns="http://www.w3.org/2000/svg">
<path d="M39.95 80.375V27.75H103.05V80.375V81.375H104.05H113.35H114.35V80.375V23.0938C114.35 19.2258 111.339 16 107.537 16H35.4625C31.6606 16 28.65 19.2258 28.65 23.0938V80.375V81.375H29.65H38.95H39.95V80.375ZM65.85 84.25H27.325C25.4441 84.25 24 85.8335 24 87.6875V92.5625C24 94.4165 25.4441 96 27.325 96H115.675C117.556 96 119 94.4165 119 92.5625V87.6875C119 85.8335 117.556 84.25 115.675 84.25H95.75V75.5V74.5H94.75H66.85H65.85V75.5V84.25Z" fill="#FF7A00" stroke="black" stroke-width="2"/>
</svg>
