<svg width="142" height="113" viewBox="0 0 142 113" fill="none" xmlns="http://www.w3.org/2000/svg">
<path d="M103.089 42.875H101.535L102.179 44.2893C104.661 49.7437 103.577 56.3075 98.8437 60.7669L70.3143 87.6463L70 87.9424V88.3742V97.5312C70 103.368 75.0041 108 81.05 108H127.95C133.996 108 139 103.368 139 97.5312V53.3438C139 47.5067 133.996 42.875 127.95 42.875H103.089ZM6.32299 42.6145L7.00872 43.3424L6.32297 42.6145C1.89234 46.7889 1.89234 53.5841 6.32297 57.7585L42.9489 92.2681L43.6347 91.5403L42.9489 92.2681C47.3457 96.4106 54.4522 96.4106 58.849 92.2681L95.477 57.7605L95.4772 57.7603C99.9075 53.5841 99.9078 46.789 95.477 42.6145L58.8511 8.10687C54.4543 3.96438 47.3478 3.96438 42.951 8.10687L6.32299 42.6145ZM104.5 79.1719C102.221 79.1719 100.475 77.4437 100.475 75.4375C100.475 73.4296 102.221 71.7031 104.5 71.7031C106.779 71.7031 108.525 73.4296 108.525 75.4375C108.525 77.4437 106.779 79.1719 104.5 79.1719ZM24.1 53.9219C21.8211 53.9219 20.075 52.1937 20.075 50.1875C20.075 48.1796 21.8208 46.4531 24.1 46.4531C26.3792 46.4531 28.125 48.1796 28.125 50.1875C28.125 52.1937 26.3789 53.9219 24.1 53.9219ZM50.9 79.1719C48.6211 79.1719 46.875 77.4437 46.875 75.4375C46.875 73.4296 48.6208 71.7031 50.9 71.7031C53.1792 71.7031 54.925 73.4296 54.925 75.4375C54.925 77.4437 53.1789 79.1719 50.9 79.1719ZM50.9 53.9219C48.6211 53.9219 46.875 52.1937 46.875 50.1875C46.875 48.1796 48.6208 46.4531 50.9 46.4531C53.1792 46.4531 54.925 48.1796 54.925 50.1875C54.925 52.1937 53.1789 53.9219 50.9 53.9219ZM50.9 28.6719C48.6211 28.6719 46.875 26.9437 46.875 24.9375C46.875 22.9296 48.6208 21.2031 50.9 21.2031C53.1792 21.2031 54.925 22.9296 54.925 24.9375C54.925 26.9437 53.1789 28.6719 50.9 28.6719ZM77.7 53.9219C75.4211 53.9219 73.675 52.1937 73.675 50.1875C73.675 48.1796 75.4208 46.4531 77.7 46.4531C79.9792 46.4531 81.725 48.1796 81.725 50.1875C81.725 52.1937 79.9789 53.9219 77.7 53.9219Z" fill="#FF7A00" stroke="black" stroke-width="2"/>
</svg>
