<svg width="35" height="35" viewBox="0 0 50 50" fill="none" xmlns="http://www.w3.org/2000/svg">
<path fill-rule="evenodd" clip-rule="evenodd" d="M25 0C11.1932 0 0 11.1932 0 25C0 38.8068 11.1932 50 25 50C38.8068 50 50 38.8068 50 25C50 11.1932 38.8068 0 25 0ZM17.5159 19.9841C17.0873 19.5701 16.5132 19.341 15.9173 19.3462C15.3214 19.3514 14.7513 19.5904 14.33 20.0118C13.9086 20.4332 13.6696 21.0032 13.6644 21.5991C13.6592 22.195 13.8883 22.7691 14.3023 23.1977L23.3932 32.2886C23.8194 32.7147 24.3974 32.9541 25 32.9541C25.6026 32.9541 26.1806 32.7147 26.6068 32.2886L35.6977 23.1977C36.1117 22.7691 36.3408 22.195 36.3356 21.5991C36.3304 21.0032 36.0914 20.4332 35.67 20.0118C35.2487 19.5904 34.6786 19.3514 34.0827 19.3462C33.4868 19.341 32.9127 19.5701 32.4841 19.9841L25 27.4682L17.5159 19.9841Z" fill="url(#paint0_linear_662_1892)"/>
<defs>
<linearGradient id="paint0_linear_662_1892" x1="25" y1="0" x2="25" y2="50" gradientUnits="userSpaceOnUse">
<stop stop-color="#FF7A00"/>
<stop offset="0.0001" stop-color="#F67209"/>
<stop offset="0.813535" stop-color="#A12161"/>
</linearGradient>
</defs>
</svg>
