<svg width="142" height="113" viewBox="0 0 63 42" fill="none" xmlns="http://www.w3.org/2000/svg">
<path d="M16.7305 15.3958V17.8123L14.3185 17.8116H14.3184C12.8402 17.8116 11.6263 19.0197 11.6263 20.5C11.6263 22.024 12.9618 23.1017 14.3883 23.1055L16.7305 23.1732V25.6042C16.7305 27.084 17.9411 28.2917 19.4198 28.2917C20.8996 28.2917 22.1055 27.0829 22.1055 25.6042V23.1875H24.5221C26.0958 23.1875 27.2092 21.9669 27.2115 20.5008V20.5C27.2115 19.0202 26.0009 17.8125 24.5221 17.8125H22.1055V15.3958C22.1055 13.9171 20.8996 12.7083 19.4198 12.7083C17.9411 12.7083 16.7305 13.916 16.7305 15.3958ZM19.5 3.5H42.8333C52.2187 3.5 59.8333 11.1111 59.8333 20.5C59.8333 29.8889 52.2187 37.5 42.8333 37.5H19.5C10.1096 37.5 2.5 29.9659 2.5 20.5C2.5 11.0341 10.1096 3.5 19.5 3.5ZM37.2292 24.957C37.2292 27.1607 38.9933 29.0208 41.293 29.0208C43.6729 29.0208 45.3568 27.2418 45.3568 24.957C45.3568 22.6722 43.5116 20.8112 41.293 20.8112C39.0673 20.8112 37.2292 22.7606 37.2292 24.957ZM43.0625 16.207C43.0625 18.4107 44.8266 20.2708 47.1263 20.2708C49.5062 20.2708 51.1901 18.4918 51.1901 16.207C51.1901 13.9298 49.4334 12.0612 47.1263 12.0612C44.9006 12.0612 43.0625 14.0106 43.0625 16.207Z" fill="#FDD301" stroke="black"/>
</svg>
