<svg width="476" height="376" viewBox="0 0 476 376" fill="none" xmlns="http://www.w3.org/2000/svg">
<path d="M152.749 273.212C175.332 342.661 156.11 370.674 143.676 376H-2.00034V-3.05176e-05C24.0432 11.8942 94.6801 31.7416 168.88 15.9773C261.629 -3.72806 316.069 29.8243 288.849 128.351C261.629 226.878 130.066 223.683 152.749 273.212Z" fill="#FDD301" fill-opacity="0.5"/>
<path d="M406.001 265C473.279 281.88 480.053 347.198 474.206 376.001H-1.99957V58.001C65.5877 75.584 85.1931 154.456 89.3206 180.077C93.4481 205.698 86.225 248.399 137.302 287.584C188.38 326.769 249.26 327.773 309.624 287.584C357.915 255.432 393.447 257.967 406.001 265Z" fill="#6A0180" fill-opacity="0.5"/>
</svg>
