<svg width="474" height="399" viewBox="0 0 474 399" fill="none" xmlns="http://www.w3.org/2000/svg">
<path d="M67.7781 107.169C1.06337 90.3425 -4.01869 28.712 1.77962 0H474V317C406.978 299.472 387.537 220.848 383.444 195.308C379.351 169.768 386.514 127.201 335.864 88.139C285.214 49.0774 224.843 48.0758 164.984 88.139C117.097 120.19 80.2271 114.18 67.7781 107.169Z" fill="#F2ACB9" fill-opacity="0.5"/>
<path d="M320.741 109.075C298.376 35.3788 317.413 5.65156 329.727 0H474V399C448.207 386.378 378.251 365.317 304.766 382.045C212.91 402.956 158.995 367.351 185.953 262.797C212.91 158.244 343.206 161.635 320.741 109.075Z" fill="#A12161" fill-opacity="0.5"/>
</svg>
